<?xml version="1.0" encoding="UTF-8"?>
<svg width="411px" height="50px" viewBox="0 0 411 50" version="1.1" xmlns="http://www.w3.org/2000/svg" xmlns:xlink="http://www.w3.org/1999/xlink">
    <title>Calcoolators</title>
    <g id="Page-1" stroke="none" stroke-width="1" fill="none" fill-rule="evenodd">
        <g id="Group">
            <path d="M173,16.5 C178.897888,12.8333333 183.897888,12.8333333 188,16.5" id="Path-2" stroke="#0EA5E9" stroke-width="9"></path>
            <circle id="Oval" fill="#000000" cx="204" cy="26" r="19"></circle>
            <circle id="Oval" fill="#000000" cx="154" cy="26" r="19"></circle>
            <g id="Group-3" transform="translate(148.500000, 10.500000)" stroke="#FFFFFF" stroke-linecap="square">
                <path d="M12.5,30.5 L20.5,5.5" id="Line" stroke-width="10"></path>
                <path d="M65.5,30.5 L72.5,5.5" id="Line" stroke-width="10"></path>
                <path d="M53.5,32.5 L63,0" id="Line" stroke-width="4"></path>
                <path d="M0.5,32.5 L11,0" id="Line" stroke-width="4"></path>
            </g>
            <g id="CalcOOlators" transform="translate(0.937180, 0.876000)" fill-rule="nonzero">
                <path d="M42.0428197,41.316 L36.1028197,35.31 C33.0668197,38.346 28.5128197,39.996 24.4868197,39.996 C13.0688197,39.996 8.64681975,32.01 8.58081975,24.354 C8.51481975,16.632 13.3328197,8.316 24.4868197,8.316 C28.5128197,8.316 32.6048197,9.702 35.6408197,12.672 L41.4488197,7.062 C36.6968197,2.376 30.7568197,7.10542736e-15 24.4868197,7.10542736e-15 C7.78881975,7.10542736e-15 -0.0651802505,12.276 0,24.354 C0.0668197495,36.366 7.32681975,48.18 24.4868197,48.18 C31.1528197,48.18 37.2908197,46.002 42.0428197,41.316 Z M70.7528197,14.586 L70.4888197,19.074 C68.6408197,15.84 64.4828197,13.794 60.1268197,13.794 C50.6228197,13.728 43.1648197,19.602 43.1648197,30.822 C43.1648197,42.24 50.2928197,48.18 59.9288197,48.114 C63.5588197,48.048 68.6408197,46.2 70.4888197,42.372 L70.8848197,47.124 L78.4748197,47.124 L78.4748197,14.586 L70.7528197,14.586 Z M60.8528197,20.988 C73.5248197,20.988 73.5248197,40.722 60.8528197,40.722 C55.5068197,40.722 51.2168197,37.026 51.2168197,30.822 C51.2168197,24.618 55.5068197,20.988 60.8528197,20.988 Z M93.2588197,0.99 L85.2728197,0.99 L85.2728197,47.124 L93.2588197,47.124 L93.2588197,0.99 Z M128.23882,42.966 C124.47682,46.662 120.51682,48.114 115.69882,48.114 C106.26082,48.114 98.4068197,42.438 98.4068197,30.888 C98.4068197,19.338 106.26082,13.662 115.69882,13.662 C120.31882,13.662 123.88282,14.982 127.44682,18.48 L122.36482,23.826 C120.45082,22.11 118.07482,21.252 115.83082,21.252 C110.41882,21.252 106.45882,25.212 106.45882,30.888 C106.45882,37.092 110.68282,40.392 115.69882,40.392 C118.27282,40.392 120.84682,39.666 122.82682,37.686 L128.23882,42.966 Z" id="Calc" fill="#FFFFFF"></path>
                <path d="M154.11082,7.10542736e-15 C138.13882,7.10542736e-15 130.35082,12.21 130.35082,24.354 C130.35082,36.498 137.87482,48.18 154.11082,48.18 C170.34682,48.18 177.67282,36.234 177.80482,24.288 C177.93682,12.21 170.01682,7.10542736e-15 154.11082,7.10542736e-15 Z M154.11082,7.92 C165.00082,7.92 169.35682,16.632 169.22482,24.42 L169.20915,24.9503882 C168.898818,32.386225 164.747564,40.194 154.11082,40.194 C143.22082,40.194 139.12882,32.076 138.93082,24.486 C138.73282,16.698 143.22082,7.92 154.11082,7.92 Z M205.92082,7.10542736e-15 C189.94882,7.10542736e-15 182.16082,12.21 182.16082,24.354 C182.16082,36.498 189.68482,48.18 205.92082,48.18 C222.15682,48.18 229.48282,36.234 229.61482,24.288 C229.74682,12.21 221.82682,7.10542736e-15 205.92082,7.10542736e-15 Z M205.92082,7.92 C216.81082,7.92 221.16682,16.632 221.03482,24.42 L221.01915,24.9503882 C220.708818,32.386225 216.557564,40.194 205.92082,40.194 C195.03082,40.194 190.93882,32.076 190.74082,24.486 C190.54282,16.698 195.03082,7.92 205.92082,7.92 Z" id="OO" fill="#00A6EF"></path>
                <path d="M243.40882,0.99 L235.42282,0.99 L235.42282,47.124 L243.40882,47.124 L243.40882,0.99 Z M276.27682,14.586 L276.01282,19.074 C274.16482,15.84 270.00682,13.794 265.65082,13.794 C256.14682,13.728 248.68882,19.602 248.68882,30.822 C248.68882,42.24 255.81682,48.18 265.45282,48.114 C269.08282,48.048 274.16482,46.2 276.01282,42.372 L276.40882,47.124 L283.99882,47.124 L283.99882,14.586 L276.27682,14.586 Z M266.37682,20.988 C279.04882,20.988 279.04882,40.722 266.37682,40.722 C261.03082,40.722 256.74082,37.026 256.74082,30.822 C256.74082,24.618 261.03082,20.988 266.37682,20.988 Z M300.76282,5.412 L292.71082,6.27 L292.71082,14.652 L286.63882,14.652 L286.63882,21.582 L292.71082,21.582 L292.71082,35.64 C292.71082,43.758 297.33082,47.784 304.39282,47.52 C306.83482,47.454 308.74882,47.058 311.05882,46.134 L308.81482,39.27 C307.62682,39.864 306.17482,40.26 304.92082,40.26 C302.41282,40.26 300.69682,38.742 300.69682,35.64 L300.69682,21.582 L309.73882,21.582 L309.73882,14.652 L300.76282,14.652 L300.76282,5.412 Z M331.05682,13.926 C320.69482,13.926 314.22682,21.582 314.22682,30.888 C314.22682,40.26 320.56282,47.85 331.12282,47.85 C341.68282,47.85 348.08482,40.26 348.08482,30.888 C348.08482,21.582 341.41882,13.926 331.05682,13.926 Z M331.12282,21.252 C336.53482,21.252 339.96682,26.004 339.96682,30.888 C339.96682,35.838 336.99682,40.458 331.12282,40.458 C325.24882,40.458 322.27882,35.838 322.27882,30.888 C322.27882,26.004 325.31482,21.252 331.12282,21.252 Z M361.08682,14.586 L353.62882,14.586 L353.62882,47.124 L361.68082,47.124 L361.68082,29.964 C361.68082,23.958 365.57482,21.714 369.79882,21.714 C372.43882,21.714 373.95682,22.44 375.60682,23.826 L379.23682,16.83 C377.45482,15.048 374.22082,13.728 370.85482,13.728 L370.371529,13.7325698 C367.228471,13.7941178 364.066478,14.5183902 361.68082,18.348 L361.08682,14.586 Z M403.52482,23.232 C401.21482,21.054 398.57482,20.328 395.47282,20.328 C391.64482,20.328 389.53282,21.516 389.53282,23.562 C389.53282,25.6184211 391.347408,26.7988338 395.281213,27.1032382 L396.08628,27.1589707 C402.142137,27.598898 409.53082,29.1325714 409.53082,37.554 C409.53082,43.296 404.84482,48.246 395.53882,48.246 L394.867374,48.2408684 C389.943916,48.163656 385.036211,47.1727826 380.49082,42.438 L384.45082,36.696 C386.76082,39.27 392.04082,41.184 395.67082,41.25 C398.70682,41.316 401.54482,39.732 401.54482,37.356 C401.54482,35.112 399.69682,34.188 395.07682,33.924 L394.540294,33.8792526 C388.520279,33.3275879 381.61282,31.0037391 381.61282,23.826 C381.61282,16.302 389.40082,13.662 395.34082,13.662 C400.42282,13.662 404.25082,14.652 408.01282,17.952 L403.52482,23.232 Z" id="lators" fill="#FFFFFF"></path>
            </g>
        </g>
    </g>
</svg>